<svg xmlns="http://www.w3.org/2000/svg" width="24" height="24" fill="none" viewBox="0 0 24 24"><path fill="#abb2bf" fill-rule="evenodd" d="M12 .5C5.6.5.5 5.6.5 12S5.6 23.5 12 23.5c6.35 0 11.5-5.1 11.5-11.5S18.35.5 12 .5m7.65 5.55c1.4 1.7 2.25 3.85 2.3 6.2-.35-.1-3.85-.8-7.35-.35-.1-.2-.15-.45-.25-.65-.2-.5-.45-1-.7-1.45 3.85-1.55 5.6-3.75 6-3.75m-7.65-4c2.5 0 4.8.95 6.55 2.5-.35.5-1.95 2.5-5.65 3.9C11.2 5.35 9.3 2.8 9 2.4c.95-.25 1.95-.35 3-.35m-4.7 1c.3.4 2.15 2.95 3.85 6C6 10.45 1.5 10.4 1.05 10.4c.65-3.25 3-5.95 6.25-7.35m-5.25 9v-.3c.45 0 5.65.1 11.15-1.5.3.6.6 1.15.85 1.75-.15.05-.3.05-.45.1-5.7 1.85-8.7 6.85-8.95 7.25-1.65-1.8-2.6-4.45-2.6-7.3M12 22c-2.25 0-4.35-.75-6.05-2 .2-.4 2.55-4.85 8.8-7.05.05 0 .05-.05.1-.05 1.55 4.1 2.15 7.5 2.3 8.45-1.55.4-3.3.65-5.15.65m6.6-1.5c-.1-.65-.65-3.9-2.1-7.9 3.25-.5 6.1.3 6.45.4-.35 2.9-1.95 5.5-4.35 7.5" clip-rule="evenodd"/></svg>