<svg xmlns="http://www.w3.org/2000/svg" width="340" height="420" fill="none" viewBox="0 0 340 420"><defs><linearGradient id="a" x1="0" x2="340" y1="0" y2="420" gradientUnits="userSpaceOnUse"><stop stop-color="#31363f"/><stop offset="1" stop-color="#20232a"/></linearGradient><linearGradient id="b" x1="170" x2="170" y1="0" y2="420" gradientUnits="userSpaceOnUse"><stop stop-color="#c778dd" stop-opacity=".4"/><stop offset="1" stop-color="#c778dd" stop-opacity="0"/></linearGradient></defs><path fill="url(#a)" d="M0 0h340v420H0z"/><circle cx="170" cy="120" r="140" fill="url(#b)"/><g class="float-med"><rect width="200" height="130" x="70" y="150" fill="#282c33" stroke="#abb2bf" stroke-width="1.5" rx="6"/><rect width="176" height="106" x="82" y="162" fill="#1c1f24" rx="3"/><rect width="60" height="6" x="96" y="176" fill="#c778dd" rx="3"/><rect width="100" height="6" x="96" y="190" fill="#abb2bf" rx="3"/><rect width="80" height="6" x="106" y="204" fill="#fff" opacity=".7" rx="3"/><rect width="140" height="6" x="96" y="218" fill="#abb2bf" opacity=".6" rx="3"/><rect width="50" height="6" x="96" y="232" fill="#c778dd" rx="3"/><rect width="120" height="6" x="106" y="246" fill="#fff" opacity=".4" rx="3"/><path fill="#1c1f24" stroke="#abb2bf" stroke-width="1.5" d="M150 280h40v14h-40z"/><rect width="100" height="10" x="120" y="294" fill="#1c1f24" stroke="#abb2bf" stroke-width="1.5" rx="2"/></g><rect width="150" height="18" x="95" y="320" fill="#282c33" stroke="#abb2bf" stroke-width="1.2" class="float-slow" rx="4"/><g stroke="#c778dd" stroke-width="1.5" class="float-fast"><rect width="30" height="30" x="255" y="300" fill="#282c33" rx="4"/><path d="M285 306h7c3 0 4 3 0 5h-7"/></g><g class="float-slow"><rect width="26" height="24" x="45" y="305" fill="#282c33" stroke="#abb2bf" stroke-width="1.2" rx="3"/><path stroke="#abb2bf" stroke-width="1.5" d="M58 305c0-15-13-20-13-35m13 35c0-20 12-25 10-40"/><path stroke="#c778dd" stroke-width="1.5" d="M58 305v-37"/></g><g fill="#abb2bf" class="float-med" opacity=".8"><circle cx="45" cy="90" r="3"/><circle cx="60" cy="90" r="3"/><circle cx="75" cy="90" r="3"/><circle cx="45" cy="105" r="3"/><circle cx="60" cy="105" r="3"/><circle cx="75" cy="105" r="3"/></g><path stroke="#c778dd" stroke-width="1.5" d="M280 60h34v34h-34z" class="float-fast"/></svg>